# xmcd CD database file
#
# Track frame offsets:
#	150
#	18187
#	40022
#	65054
#	83129
#	118075
#
# Disc length: 1851 seconds
#
# Revision: 0
# Processed by: cddbd v1.5.2PL0 Copyright (c) Steve Scherf et al.
# Submitted via: CDex 1.70beta2
#
DISCID=45073906
DTITLE=Lisa Dodd - Minute Four
DYEAR=1900
DGENRE=Country
TTITLE0=Corner of Life
TTITLE1=Gone - fast version
TTITLE2=Good Time Charlie's Got The Blues
TTITLE3=Sweet
TTITLE4=Me and Bobby McGee/ Mercedes Benz
TTITLE5=Gone - slow version
EXTD=
EXTT0=
EXTT1=
EXTT2=
EXTT3=
EXTT4=
EXTT5=
PLAYORDER=
